<svg version="1.2" xmlns="http://www.w3.org/2000/svg" viewBox="0 0 438 503" width="438" height="503"><style></style><path  d="m274.3 0c32.5-0.1 41.4 0.2 42.3 1.2 0.6 0.7 1.4 4.4 1.8 8.3 0.4 3.8 1.4 10.4 2.2 14.5 0.9 4.1 2.6 10.9 4 15 1.3 4.1 4.2 11.1 6.5 15.5 2.2 4.4 6 10.7 8.3 14 2.4 3.3 7 8.9 10.2 12.4 3.2 3.5 8.6 8.5 11.9 11.1 3.3 2.7 10 7.3 15 10.4 4.9 3.1 12.4 7.1 16.5 8.8 4.1 1.7 11.5 4.2 16.5 5.4 4.9 1.3 12.6 2.7 17 3 4.4 0.4 8.8 1.1 9.7 1.5 1.7 0.8 1.8 3.9 1.8 42.9 0 39.1-0.1 42-1.8 42.5-0.9 0.3-6.9 0.1-13.2-0.5-6.3-0.6-14.4-1.5-18-2.1-3.6-0.5-11.2-2.1-17-3.6-5.8-1.4-14.8-4.1-20-6-5.2-1.9-14.5-5.8-20.5-8.7-6.1-3-14.8-7.9-19.5-11-4.7-3.1-8.8-5.3-9.2-4.9-0.4 0.5-0.9 44.4-1.1 97.8-0.3 93.5-0.4 97.3-2.4 106.5-1.1 5.2-3.2 13.1-4.6 17.5-1.4 4.4-3.3 9.8-4.2 12-0.9 2.2-2.8 6.4-4.1 9.3-1.3 2.8-5 9.4-8.1 14.5-3.2 5-8.9 13-12.8 17.7-3.9 4.7-10.7 11.8-15.1 15.8-4.3 4-12.2 10.2-17.4 13.7-5.2 3.5-13.8 8.4-19 10.8-5.2 2.5-13.6 5.8-18.5 7.5-5 1.7-15.1 4.2-22.5 5.7-7.4 1.4-15.4 3-17.8 3.5-2.3 0.6-9.5 1-16 1-6.4 0-13.1-0.4-14.7-0.9-1.7-0.5-7.7-1.9-13.5-3.1-5.8-1.2-14.6-3.8-19.5-5.7-5-2-13.3-5.7-18.5-8.4-5.2-2.6-13.3-7.3-18-10.5-4.7-3.1-11.6-8.2-15.4-11.3-3.8-3.1-9.6-8.5-12.9-12.1-3.4-3.6-8.9-10.3-12.4-15-3.5-4.7-9-13.9-12.3-20.5-3.3-6.6-7.6-17-9.5-23-2-6.1-4.5-16.2-5.7-22.5-1.4-8.2-2.1-15.9-2.1-27 0-10.7 0.5-18.6 1.7-25.5 1-5.5 3.1-14.3 4.6-19.5 1.6-5.2 4.5-13.3 6.6-18 2-4.7 5.8-12.1 8.3-16.5 2.6-4.4 7.2-11.4 10.3-15.5 3.1-4.1 9-10.9 13-15.1 4-4.2 10.9-10.5 15.3-14.1 4.4-3.5 12.5-9.1 18-12.3 5.5-3.2 13.6-7.4 18-9.3 4.4-1.8 11.4-4.4 15.5-5.8 4.1-1.3 12.2-3.4 18-4.5 8.3-1.7 14.2-2.1 28-2.1 10.6 0 18.6 0.4 23 2.2v86.5l-5.7-1c-3.2-0.6-11.2-1-17.8-0.9-10.8 0.1-12.9 0.4-21 3.2-5 1.8-11.4 4.7-14.3 6.4-3 1.8-8.1 5.8-11.5 8.8-3.3 3-8.2 8.6-10.9 12.5-2.7 3.8-6.2 10.4-7.7 14.5-1.6 4.1-3.5 11.1-4.1 15.5-0.7 4.8-1 11.2-0.6 16 0.4 4.4 2 11.8 3.5 16.5 1.6 4.7 4.6 11.4 6.7 15 2.1 3.6 7.2 9.9 11.3 14 4.2 4.1 10.5 9.2 14.1 11.3 3.6 2.1 10.1 5 14.5 6.4 7.1 2.4 9.5 2.7 22 2.7 12.8 0 14.7-0.2 22-2.8 4.4-1.5 10.7-4.4 14-6.3 3.3-1.9 8.2-5.4 11-7.7 2.7-2.4 7.2-7.2 9.9-10.7 2.7-3.5 6.4-9.7 8.3-13.7 1.8-3.9 3.9-10.2 4.7-14 1.2-5.6 1.5-35 1.9-182.1 0.3-96.4 0.8-175.7 1.1-176.2 0.4-0.5 18.9-0.9 41.9-0.9z"/></svg>