<svg version="1.2" xmlns="http://www.w3.org/2000/svg" viewBox="0 0 512 512">
    <path  d="m254.8 0.1c15.7-0.1 22.2 0.4 35.9 2.4 9.3 1.4 22 3.8 28.3 5.4 6.3 1.6 16.9 4.9 23.5 7.2 6.6 2.4 19 7.8 27.5 12 8.5 4.3 20.4 11 26.5 15 6 4 14.8 10.4 19.5 14.1 4.7 3.8 13.6 11.9 19.8 18.1 6.3 6.1 14.7 15.2 18.7 20.2 4 4.9 10.8 14.2 15 20.5 4.2 6.3 10.9 18 15 26 4 8 9.4 20.3 12 27.5 2.6 7.1 6 18.2 7.6 24.5 1.6 6.3 4 19.1 5.4 28.5 1.9 13 2.5 21.1 2.5 34.5 0 13.4-0.6 21.5-2.5 34.5-1.4 9.3-3.8 22.2-5.4 28.5-1.6 6.3-5 17.3-7.6 24.5-2.6 7.1-8 19.5-12 27.5-4.1 8-10.8 19.7-15 26-4.2 6.3-11 15.5-15 20.5-4 4.9-12.4 14.1-18.7 20.2-6.2 6.2-15.1 14.3-19.8 18.1-4.7 3.7-13.5 10.1-19.5 14.1-6.1 4-18 10.7-26.5 15-8.5 4.2-20.9 9.6-27.5 12-6.6 2.3-17.2 5.6-23.5 7.2-6.3 1.6-19 4-28.3 5.4-13.1 2-20.6 2.5-35 2.5-13.3 0-22-0.5-32.2-2.1-7.7-1.1-17.8-2.9-22.5-3.9-4.7-1-11.1-2.5-14.3-3.4-3.1-0.9-5.7-2.1-5.7-2.6 0-0.6 1.1-2.7 2.3-4.8 1.3-2 5.2-8.9 8.7-15.2 3.4-6.3 8.1-15.8 10.5-21 2.3-5.2 5.4-12.9 6.8-17 1.3-4.1 6-21 10.3-37.5 4.2-16.5 7.9-30.1 8.1-30.3 0.2-0.1 3.2 2.8 6.7 6.5 3.5 3.8 9 8.4 12.2 10.3 3.2 1.9 9.3 4.7 13.4 6.1 4.1 1.5 10.9 3.2 15 3.9 4.7 0.8 11.4 1.1 18 0.7 5.8-0.4 13.9-1.3 18-2.2 4.1-0.9 10.8-2.7 14.7-4 4-1.4 10.1-3.9 13.5-5.6 3.5-1.7 10.1-5.6 14.8-8.7 4.7-3.1 13-10.1 18.5-15.7 6.5-6.4 12.7-14 17.4-21 4-6.1 9.3-15.1 11.6-20 2.4-5 5.5-12.4 7-16.5 1.4-4.1 3.7-11.8 5-17 1.3-5.2 3.2-14.7 4.1-21 1.2-8.8 1.5-16 1.2-30.5-0.4-14.4-1-21.2-2.6-28-1.1-5-3.5-13.1-5.3-18-1.7-5-4.6-11.9-6.4-15.5-1.8-3.6-6.1-10.8-9.6-16-3.9-6-10.5-13.8-17.8-21.1-7.3-7.3-15.1-13.9-21.1-17.8-5.2-3.5-13.3-8.3-18-10.6-4.7-2.4-13.2-5.9-19-7.9-5.8-2.1-15.9-4.8-22.5-6.2-8.1-1.6-17-2.6-27.5-3.1-9.4-0.3-20.2-0.1-27.5 0.6-6.6 0.7-16.7 2.1-22.5 3.2-5.8 1.2-14.8 3.4-20 5.1-5.2 1.6-15.4 5.8-22.5 9.3-7.2 3.4-16.6 8.9-21 12-4.4 3.2-10.7 8.1-14 11-3.3 2.9-8.8 8.6-12.3 12.6-3.4 4.1-8.5 10.8-11.3 14.9-2.8 4.1-7.2 12-9.9 17.5-2.6 5.5-6.2 14.5-8 20-1.7 5.5-4.1 15.4-5.2 22-1.7 9.9-1.9 15-1.5 29 0.4 14.8 0.8 18.5 3.4 28.5 1.7 6.3 4.8 15.5 6.9 20.5 2.2 4.9 6.2 12.6 8.9 17 2.8 4.5 8.7 11.7 13.5 16.5 5.2 5.3 10.8 9.8 14.5 11.8 3.3 1.7 7 3.1 8.3 3.2 1.2 0 2.6-0.8 3.1-1.8 0.5-0.9 2.6-8.3 4.5-16.5 2-8.1 3.6-15.9 3.6-17.5-0.1-1.5-2-5.5-4.5-9.2-2.4-3.6-5.5-9.1-6.9-12.3-1.4-3.1-3.7-9.4-5-14-1.3-4.5-2.9-12.7-3.6-18.2-0.8-7.5-0.8-12.6 0-20.5 0.7-5.8 2.1-13.9 3.2-18 1.1-4.1 3.3-10.7 4.9-14.5 1.6-3.9 5-10.5 7.6-14.7 2.7-4.2 7.3-10.7 10.3-14.3 3-3.7 8.4-9 12-11.9 3.6-2.9 8.5-6.6 11-8.3 2.5-1.7 7.3-4.4 10.7-6.2 3.5-1.7 10.2-4.4 15-6.1 4.9-1.6 13.1-3.6 18.3-4.4 5.2-0.9 14.9-1.6 21.5-1.6 6.6 0 16 0.7 21 1.5 4.9 0.8 12.1 2.4 16 3.6 3.8 1.2 10.6 3.9 15 6.1 4.4 2.2 10.7 5.9 14 8.2 3.3 2.4 9.1 7.4 12.8 11.2 3.7 3.8 8.8 9.8 11.2 13.4 2.4 3.6 5.7 9.5 7.4 13.3 1.7 3.7 4.2 10.4 5.5 14.9 1.3 4.6 3 13 3.6 18.8 0.8 6.3 1 14.9 0.7 21.5-0.4 6-1.6 16.4-2.7 23-1.1 6.6-3.6 16.5-5.4 22-1.8 5.5-4.8 12.9-6.6 16.5-1.8 3.6-4.8 8.9-6.6 11.7-1.9 2.9-5.7 7.9-8.6 11-2.9 3.2-7.3 7.5-9.8 9.6-2.5 2.1-7.9 5.5-12 7.6-4.1 2.1-11.1 4.6-15.5 5.6-5.6 1.3-10.2 1.6-15.5 1.2-4.1-0.3-10-1.4-13-2.5-3.4-1.3-7.8-4.1-11.4-7.4-3.2-2.9-6.9-7.3-8.1-9.8-1.3-2.5-2.8-7.4-3.5-11-0.9-5.3-0.9-7.8 0.4-14 0.9-4.1 4.9-19 9.1-33 4.2-14 8.2-28.2 8.9-31.5 0.8-3.3 1.9-9.6 2.6-14 0.8-5.9 0.9-9.8 0-15-0.6-3.9-2.1-9.3-3.4-12-1.3-2.8-4.6-6.9-7.3-9.3-2.7-2.4-6.9-5-9.8-5.9-3.4-1.1-7.5-1.4-13-1.2-6.5 0.3-9.3 1-14.5 3.6-4.4 2.1-8.5 5.2-12.8 9.7-4.1 4.4-7.4 9.2-9.9 14.4-2 4.3-4.5 11.9-5.6 17.2-1.5 7.5-1.8 11.9-1.4 21 0.4 6.9 1.4 14.5 2.6 19 1.1 4.1 2.6 9.3 3.3 11.5 1.1 3.7 0.1 8.3-14.1 69-8.3 35.8-15.4 66-15.6 67.3-0.3 1.2-1 7.9-1.5 15-0.8 8.9-0.8 18 0 30.7 0.6 9.9 1.3 18.8 1.5 19.8 0.3 0.9-0.1 1.7-0.8 1.7-0.6 0-8.9-3.8-18.2-8.4-9.4-4.6-22.2-11.8-28.5-16.1-6.3-4.2-15.6-11-20.5-15-5-4-14-12.4-20.2-18.7-6.2-6.2-14.3-15.1-18-19.8-3.8-4.7-9.8-13-13.5-18.5-3.6-5.5-8.8-14.1-11.5-19-2.7-5-7-13.7-9.5-19.5-2.6-5.8-6.5-15.9-8.7-22.5-2.2-6.6-5.2-17-6.5-23-1.4-6.1-3.4-17.4-4.5-25.2-1.5-10-2.1-19.4-2.1-31.3 0-9.5 0.7-22.4 1.6-29.2 0.8-6.8 2.7-17.9 4-24.8 1.4-6.9 4.8-19.2 7.5-27.5 3-8.9 8.4-21.9 13.3-32 4.6-9.4 11.8-22.2 16.1-28.5 4.2-6.3 11-15.6 15-20.5 4-5 12.4-14.1 18.7-20.2 6.2-6.2 15.1-14.3 19.8-18.1 4.7-3.7 13.4-10.1 19.5-14.1 6-4 18-10.7 26.5-15 8.5-4.2 20.9-9.6 27.5-12 6.6-2.3 17.2-5.6 23.5-7.2 6.3-1.6 18.5-4 27-5.3 12-1.9 19.8-2.4 34.7-2.5z"/>
</svg>