<svg version="1.2" xmlns="http://www.w3.org/2000/svg" viewBox="0 0 619 508">
    <path  d="m432.5 0.5c8.2 0.3 17.9 1.1 21.5 1.9 3.6 0.8 10.1 2.6 14.5 4.1 4.4 1.5 11.1 4.1 15 5.9 3.8 1.8 11 5.9 16 9.1 4.9 3.3 12.1 8.9 22.7 19l9.6-2.4c5.4-1.3 14.4-3.9 20.2-5.8 5.8-1.9 14.3-5 19-7 4.7-2 13.3-6.1 19.3-9.2 5.9-3.1 11-5.4 11.3-5.1 0.3 0.3 0 2.3-0.6 4.5-0.7 2.2-3.4 8.3-6.1 13.5-2.7 5.2-7.8 13.3-11.3 18-3.5 4.7-9.9 11.8-14.2 15.9-4.4 4-10.5 9.1-13.7 11.2-3.1 2.2-5.7 4.2-5.7 4.6 0 0.5 4.2 0.2 9.3-0.5 5-0.7 14.4-2.6 20.7-4.2 6.3-1.6 15.3-4.2 20-5.9 4.7-1.6 10.6-3.8 13.2-5 2.7-1.2 5-1.8 5.2-1.4 0.2 0.5-3.2 5.7-7.7 11.8-4.5 6-13.4 16.4-19.8 23-6.4 6.6-14.2 14-17.4 16.5-3.1 2.5-8.2 6.4-16.5 13v14.5c0 8-0.5 21.1-1.1 29.2-0.6 8.2-2.1 21.3-3.5 29.3-1.3 8-4 21-5.9 29-1.9 8-5.5 20.8-8.1 28.5-2.5 7.7-6.1 17.8-8 22.5-1.9 4.7-3.9 9.4-4.4 10.5-0.5 1.1-3 6.5-5.6 12-2.5 5.5-7.3 14.9-10.7 21-3.3 6-8.8 15.3-12.1 20.5-3.3 5.2-9.8 14.7-14.4 21-4.7 6.3-10.8 14.2-13.6 17.5-2.8 3.3-9.4 10.7-14.7 16.5-5.3 5.8-14.6 14.9-20.5 20.2-6 5.3-13.6 11.7-16.9 14.2-3.3 2.5-9.6 7.2-14 10.4-4.4 3.2-12.7 8.8-18.5 12.4-5.8 3.6-15.5 9.1-21.5 12.3-6.1 3.1-16.4 8.1-23 11-6.6 2.9-19 7.6-27.5 10.4-8.5 2.9-21.1 6.5-28 8.2-6.9 1.7-19 4.1-27 5.5-8 1.3-19.2 2.9-25 3.5-5.8 0.5-17.3 1.3-25.5 1.7-9.2 0.5-22.3 0.3-34-0.4-10.5-0.7-21.7-1.5-25-1.9-3.3-0.4-12.5-1.8-20.5-3.2-8-1.3-21-4.2-29-6.3-8-2.2-19.7-5.7-26-7.9-6.3-2.2-16.9-6.2-23.5-9.1-6.6-2.8-16.5-7.4-22-10.2-5.5-2.7-13.9-7.3-18.7-10.2-4.8-2.8-8.8-5.6-8.8-6.1 0-0.6 9.8-1 27.3-1 20.5-0.1 29.5-0.5 36.7-1.7 5.2-0.9 13.1-2.4 17.5-3.3 4.4-0.9 13.2-3.3 19.5-5.2 6.3-2 16.2-5.5 22-7.8 5.8-2.3 13.9-5.9 18-8 4.1-2.1 12-6.5 17.5-9.8 5.5-3.3 13.3-8.4 17.2-11.3 4-3 7.1-5.7 6.9-6.2-0.2-0.4-3.9-1.1-8.2-1.5-4.4-0.5-12.9-2.1-18.9-3.7-6.1-1.6-13.7-4.1-17-5.5-3.3-1.5-8-3.7-10.5-4.9-2.5-1.2-7.7-4.3-11.5-6.8-3.9-2.5-10.4-7.6-14.5-11.4-4.1-3.8-9.3-8.9-11.4-11.4-2.1-2.5-5.8-7.2-8.1-10.5-2.3-3.3-5.8-8.9-7.7-12.5-1.9-3.6-4.8-9.5-6.4-13.2-1.6-3.7-2.7-7-2.4-7.3 0.3-0.3 5.4-0.1 11.5 0.5 6 0.6 13.7 0.8 17 0.5 3.3-0.3 10-1.1 14.9-1.8 4.8-0.6 9.2-1.8 9.7-2.5 0.6-0.8 0.1-1.4-1.9-1.8-1.5-0.3-7.2-2.1-12.7-4.1-5.5-2-12.7-5.1-16-6.9-3.3-1.8-9.8-6-14.5-9.3-4.7-3.3-11.6-9-15.4-12.8-3.8-3.7-9.7-10.6-13.2-15.3-3.5-4.7-8.6-13-11.4-18.5-2.7-5.5-6.2-14.3-7.9-19.5-1.6-5.2-3.4-13.1-4-17.5-0.5-4.4-1.1-10.7-1.2-14-0.1-3.3-0.1-6.3 0-6.8 0-0.4 3.1 0.8 6.8 2.7 3.8 1.8 9.9 4.3 13.8 5.6 3.8 1.2 9.5 2.9 12.5 3.6 3 0.7 9.4 1.7 14.3 2.1 4.8 0.5 8.7 0.5 8.7 0 0-0.4-2.3-2.4-5.2-4.5-2.9-2-7.2-5.5-9.6-7.7-2.4-2.2-7.2-7.4-10.6-11.5-3.4-4.1-7.7-9.8-9.5-12.5-1.8-2.8-5.5-9.5-8.1-15-2.6-5.5-5.6-13.2-6.8-17-1.1-3.9-2.7-10.6-3.6-15-1.1-5.2-1.6-13.2-1.6-22.8 0-11 0.5-17.3 2.1-24.9 1.2-5.7 3.5-13.9 5.1-18.3 1.6-4.4 4.4-10.8 6.1-14.3 1.8-3.4 3.4-6.2 3.7-6.2 0.3 0.1 4.5 4.9 9.5 10.6 4.9 5.8 13.3 14.6 18.5 19.6 5.2 5 14.9 13.7 21.6 19.2 6.6 5.6 17 13.5 23 17.8 6 4.2 16.1 10.8 22.4 14.6 6.3 3.8 17.1 9.8 24 13.2 6.9 3.5 15.6 7.6 19.5 9.2 3.8 1.7 9.9 4.1 13.5 5.5 3.6 1.4 10.3 3.8 15 5.4 4.7 1.6 14.3 4.5 21.5 6.4 7.1 1.9 18.8 4.6 26 5.9 7.1 1.4 19.5 3.2 27.5 4.1 8 0.9 16.1 1.5 18 1.3 3-0.3 3.5-0.7 3.4-2.8 0-1.4-0.6-7.9-1.3-14.5-0.9-9.2-1-14.7-0.1-23.5 0.6-6.3 1.8-14.2 2.6-17.5 0.9-3.3 2.4-8.6 3.5-11.8 1-3.1 3.7-9.4 5.8-14 2.2-4.5 6.3-11.8 9.2-16.2 2.9-4.4 9.4-12.2 14.3-17.4 5-5.1 13.1-12.2 18.1-15.6 4.9-3.4 12.4-7.9 16.5-10 4.1-2.1 12-5.2 17.5-7.1 5.5-1.8 12.9-3.8 16.5-4.3 3.6-0.6 7.8-1.3 9.5-1.5 1.6-0.2 9.7-0.3 18-0.1z"/>
</svg>