<svg version="1.2" xmlns="http://www.w3.org/2000/svg" viewBox="0 0 278 512">
    <path  d="m270.5 0l6.6 6.5v86l-2.6 2.8c-1.4 1.5-3.5 2.9-4.8 3.2-1.2 0.2-15.3 0.6-31.2 0.9-16.4 0.2-30.7 0.8-33 1.5-2.2 0.6-6 2.3-8.5 3.9-3.3 2-5.3 4.4-10.5 14.6l-0.5 64.6 82.2 0.5 5.8 6.5v45c0 36.3-0.3 45.5-1.4 47.8-0.7 1.5-2.5 3.3-4 4-1.9 0.9-12.7 1.2-82.6 1.2v106.5c0 86.4-0.3 107.1-1.3 109.8-0.8 1.7-2.6 4-4 5-2.5 1.6-6.6 1.7-96.7 1.7l-6-7v-216h-34.5c-23.4 0-35.2-0.4-36.8-1.1-1.2-0.6-3-2.1-3.9-3.3-1.6-1.9-1.8-6-1.8-48.1 0-44.8 0-46.1 2-48.2 1.1-1.3 3.1-2.8 4.5-3.3 1.5-0.6 16.2-1 70.5-1v-35.2c0-25.7 0.4-38 1.5-45.3 0.8-5.5 2.2-12.9 3-16.5 0.9-3.6 3.1-10.3 5-15 1.9-4.7 5.1-11.6 7.2-15.4 2.1-3.7 6.7-10.4 10.3-14.9 3.6-4.4 9.6-10.7 13.5-14 3.8-3.2 10.4-7.9 14.5-10.3 4.1-2.4 10.9-5.8 15-7.5 4.1-1.8 11.8-4.2 17-5.4 5.2-1.3 11.7-2.7 14.5-3.3 2.7-0.5 24.3-1 91-1.2z"/>
</svg>