<svg version="1.2" xmlns="http://www.w3.org/2000/svg" viewBox="0 0 481 337" width="481" height="337"><style></style><path fill-rule="evenodd" d="m236 0.2c22.8-0.1 52.5 0.3 66 0.8 13.5 0.5 35.5 1.5 49 2.1 13.5 0.5 31.9 1.7 41 2.5 9.1 0.8 20.8 2.1 26 3 5.2 0.9 12 2.5 15 3.6 3 1 7.1 2.8 9 3.9 1.9 1.2 5.7 3.7 8.3 5.7 2.6 2.1 6.7 6.2 9.1 9.2 2.4 3 5.6 8 7.1 11 1.5 3 3.8 9.5 5 14.5 1.3 4.9 3 14.2 3.9 20.5 0.9 6.3 2 16.4 2.6 22.5 0.5 6 1.5 23.8 2.1 39.5 0.8 20.9 0.8 36.1 0 57-0.6 15.7-1.8 35.7-2.6 44.5-0.8 8.8-2.5 21.6-3.6 28.5-1.2 6.9-3.2 15.6-4.5 19.5-1.3 3.8-4.5 10.1-7.1 13.9-2.7 3.8-7.1 8.9-9.8 11.3-2.7 2.4-8.6 6.2-13 8.4-4.4 2.2-11.2 4.6-15 5.4-3.9 0.7-13.1 2.1-20.5 2.9-7.4 0.8-21.6 2-31.5 2.6-9.9 0.6-29.7 1.5-44 2.1-14.3 0.5-44.2 1.2-66.5 1.6-24.6 0.4-54 0.1-75-0.6-19-0.6-44.4-1.6-56.5-2.2-12.1-0.5-27.6-1.4-34.5-1.9-6.9-0.6-17.7-1.7-24-2.5-6.3-0.8-14.2-2.2-17.5-3-3.3-0.8-9.4-3.2-13.5-5.2-5.3-2.6-9.6-5.7-14.6-10.7-5.3-5.3-8.1-9.2-11.2-15.6-3.1-6.3-4.8-11.7-6.6-21-1.4-6.9-3.2-19.3-4-27.5-0.8-8.3-2.3-29-3.2-46-1.4-26.3-1.5-34.5-0.5-54.5 0.6-12.9 1.6-29.8 2.2-37.5 0.5-7.7 1.6-19.6 2.5-26.5 0.8-6.9 2.6-17.2 3.8-23 1.5-6.7 3.7-13.2 6.2-18 2.6-5.2 6.1-9.8 11.3-15 5.4-5.4 9.7-8.6 15.1-11.3 4.1-2 10.6-4.3 14.5-5.1 3.8-0.8 13.3-2.2 21-3 7.7-0.9 21-2 29.5-2.6 8.5-0.5 30.3-1.4 48.5-2 18.1-0.6 34.3-1.2 36-1.4 1.6-0.1 21.7-0.4 44.5-0.4zm-42.8 239.8c0.2 0 27.9-15.8 61.6-35.2 33.7-19.4 61.3-35.8 61.4-36.3 0-0.6-27.5-16.9-61.1-36.3-33.6-19.3-61.3-35.2-61.6-35.2-0.3 0-0.5 32.2-0.5 71.5 0 39.3 0.1 71.5 0.2 71.5z"/></svg>