<svg version="1.2" xmlns="http://www.w3.org/2000/svg" viewBox="0 0 512 512">
    <path fill-rule="evenodd" d="m255.3 0.1c79.9-0.1 131.3 0.3 133.9 0.9 2.4 0.5 8.6 1.9 13.8 3.1 5.2 1.2 14 3.9 19.5 6.1 5.5 2.1 13.6 5.9 18 8.5 4.4 2.5 11.4 7.2 15.5 10.3 4.1 3.2 10.6 8.8 14.4 12.6 3.8 3.8 9.4 10.3 12.6 14.4 3.1 4.1 7.5 10.6 9.8 14.5 2.3 3.8 5.9 11.3 8 16.5 2.2 5.2 4.9 12.9 6 17 1.1 4.1 2.7 11.7 3.6 16.8 1.4 8.1 1.6 24.7 1.6 134.7 0 109.2-0.2 126.8-1.6 135.3-0.8 5.3-2.5 13.1-3.6 17.2-1.1 4.1-3.8 11.8-6 17-2.1 5.2-5.7 12.6-8 16.5-2.3 3.8-6.7 10.4-9.8 14.5-3.2 4.1-8.8 10.6-12.6 14.4-3.8 3.8-10.3 9.4-14.4 12.6-4.1 3.1-11.1 7.8-15.5 10.3-4.4 2.6-12.5 6.4-18 8.5-5.5 2.2-14.3 4.9-19.5 6.1-5.2 1.2-11.4 2.6-13.8 3.1-2.6 0.6-54.2 1-133.2 1-79 0-130.6-0.4-133.3-1-2.3-0.5-8.5-1.9-13.7-3.1-5.2-1.2-14-3.9-19.5-6.1-5.5-2.1-13.6-5.9-18-8.5-4.4-2.5-11.4-7.2-15.5-10.3-4.1-3.2-10.6-8.8-14.4-12.6-3.8-3.8-9.4-10.3-12.6-14.4-3.1-4.1-7.8-11.1-10.3-15.5-2.6-4.4-6.3-12.1-8.2-17-2-5-4.4-12.2-5.4-16-1.1-3.9-2.6-11.2-3.5-16.3-1.4-8.1-1.6-24.7-1.6-134.7 0-109.2 0.2-126.8 1.6-135.3 0.8-5.3 2.4-12.9 3.5-16.7 1-3.9 3.4-11.1 5.4-16 1.9-5 5.6-12.6 8.2-17 2.5-4.4 7.2-11.4 10.3-15.5 3.2-4.1 8.8-10.6 12.6-14.4 3.8-3.8 10.3-9.4 14.4-12.6 4.1-3.1 11.1-7.8 15.5-10.3 4.4-2.6 12.5-6.4 18-8.5 5.5-2.2 14-4.9 19-6 4.9-1.1 10.8-2.5 13-3 2.4-0.6 56-1 133.7-1.1zm-140.5 49.4c-4.8 1.4-11.5 3.9-15 5.6-3.4 1.8-8.7 4.7-11.7 6.7-3 1.9-9 6.9-13.3 11.1-4.3 4.2-9.8 10.5-12.2 14.1-2.3 3.6-5.7 9.3-7.4 12.8-1.7 3.4-4.2 10.1-5.6 15-1.4 4.8-3 13.4-3.5 19.2-0.6 6.1-1 57.2-1 122 0 64.8 0.4 115.9 1 122 0.5 5.8 2.1 14.4 3.5 19.3 1.4 4.8 3.9 11.5 5.6 15 1.8 3.4 4.7 8.7 6.7 11.7 1.9 3 6.9 9 11.1 13.3 4.2 4.3 10.5 9.8 14.1 12.2 3.6 2.3 9.3 5.7 12.7 7.4 3.5 1.7 10.2 4.2 15 5.6 4.9 1.4 13.5 3 19.3 3.5 6.1 0.6 57.2 1 122 1 64.8 0 115.9-0.4 122-1 5.8-0.5 14.4-2.1 19.2-3.5 4.9-1.4 11.6-3.9 15-5.6 3.5-1.7 9.2-5.1 12.8-7.4 3.6-2.4 9.9-7.9 14.1-12.2 4.2-4.3 9.2-10.3 11.1-13.3 2-3 4.9-8.3 6.7-11.7 1.7-3.5 4.2-10.2 5.6-15 1.4-4.9 3-13.5 3.5-19.3 0.6-6.1 1-57.2 1-122 0-64.8-0.4-115.9-1-122-0.5-5.8-2.1-14.4-3.5-19.2-1.4-4.9-3.9-11.6-5.6-15-1.8-3.5-4.7-8.8-6.7-11.8-1.9-3-6.9-9-11.1-13.3-4.2-4.3-10.5-9.8-14.1-12.2-3.6-2.3-9.3-5.7-12.8-7.4-3.4-1.7-10.1-4.2-15-5.6-4.8-1.4-13.4-3-19.2-3.5-6.2-0.6-56.7-0.9-124-0.9-62.4 0.1-117.3 0.5-122 1-4.7 0.4-12.4 2-17.3 3.4zm278.6 36.6c4.3-0.1 8.6 0.6 11.9 1.8 2.9 1.1 7.5 3.9 10.2 6.3 2.8 2.6 6 6.7 7.8 10.3 2.4 4.8 3 7.4 3.1 13 0 3.8-0.4 8.8-1.1 11-0.6 2.2-2.6 6.2-4.4 8.9-1.8 2.7-5.1 6.2-7.3 7.8-2.2 1.6-6.5 3.8-9.5 4.9-4 1.5-7.2 2-12 1.7-4.8-0.2-8.3-1.2-13.3-3.6-4.4-2.1-7.9-4.6-10.1-7.4-1.9-2.4-4.5-6.5-5.7-9.3-1.7-3.7-2.2-7-2.3-12.5 0-6.2 0.5-8.6 2.9-13.9 2-4.3 4.6-7.8 8-10.8 2.7-2.4 7.2-5.3 10-6.3 3-1.1 7.7-1.9 11.7-1.9zm-138.2 38c4.1 0 12.2 0.6 18 1.4 5.8 0.7 14.5 2.6 19.5 4 4.9 1.5 12.1 4 16 5.6 3.8 1.7 10.1 4.9 14 7.1 3.8 2.3 9.7 6.2 13 8.7 3.3 2.5 9.4 7.9 13.5 12.1 4.2 4.1 9.6 10.2 12.1 13.5 2.5 3.3 6.7 9.6 9.2 14 2.5 4.4 6.1 11.6 7.8 16 1.8 4.4 4.2 12 5.5 17 1.3 4.9 2.9 14.2 3.5 20.5 1 9 1 14.1 0 23.5-0.6 6.6-2.2 16-3.5 21-1.3 4.9-3.7 12.6-5.5 17-1.7 4.4-5.3 11.6-7.8 16-2.5 4.4-6.7 10.7-9.2 14-2.5 3.3-7.9 9.4-12.1 13.5-4.1 4.2-10.2 9.6-13.5 12.1-3.3 2.5-9.6 6.7-14 9.2-4.4 2.5-11.6 6.1-16 7.8-4.4 1.8-12.1 4.2-17 5.5-5 1.3-14.4 2.9-21 3.5-9.4 1-14.5 1-23.5 0-6.3-0.6-15.6-2.2-20.5-3.5-5-1.3-12.6-3.7-17-5.5-4.4-1.7-11.6-5.3-16-7.8-4.4-2.5-10.7-6.7-14-9.2-3.3-2.5-9.4-7.9-13.5-12.1-4.2-4.1-9.6-10.2-12.1-13.5-2.5-3.3-6.7-9.6-9.2-14-2.5-4.4-6.1-11.6-7.8-16-1.8-4.4-4.2-12.1-5.5-17-1.3-5-2.9-14.4-3.5-21-1-9.4-1-14.5 0-23.5 0.6-6.3 2.2-15.6 3.5-20.5 1.3-5 3.7-12.6 5.5-17 1.7-4.4 5.3-11.6 7.8-16 2.5-4.4 6.7-10.7 9.2-14 2.5-3.3 7.9-9.4 12.1-13.5 4.1-4.2 10.2-9.6 13.5-12.1 3.3-2.5 9.1-6.4 13-8.7 3.8-2.2 10.1-5.4 14-7.1 3.8-1.6 11-4.1 16-5.6 4.9-1.5 13.3-3.2 18.5-4 5.2-0.7 12.9-1.3 17-1.4zm-36.5 54.3c-5 2.4-12.3 7-16.4 10.2-4 3.3-10.1 9.3-13.3 13.4-3.3 4.1-8 11.5-10.4 16.5-2.4 4.9-5.2 12.8-6.4 17.5-1.4 6-2 11.9-2 20 0 8.1 0.6 14 2 20 1.2 4.7 4 12.5 6.4 17.5 2.4 4.9 7 12.3 10.2 16.4 3.3 4 9.3 10.1 13.4 13.3 4.1 3.3 11.5 8 16.5 10.4 4.9 2.4 12.8 5.2 17.5 6.4 6 1.4 11.9 2 20 2 8.1 0 14-0.6 20-2 4.7-1.2 12.5-4 17.5-6.4 4.9-2.4 12.4-7.1 16.5-10.4 4.1-3.2 10.1-9.3 13.4-13.3 3.2-4.1 7.8-11.5 10.2-16.4 2.4-5 5.2-12.8 6.4-17.5 1.4-6 2-11.9 2-20 0-8.1-0.6-14-2-20-1.2-4.7-4-12.6-6.4-17.5-2.4-5-7.1-12.4-10.4-16.5-3.2-4.1-9.3-10.1-13.3-13.4-4.1-3.2-11.5-7.8-16.4-10.2-5-2.4-12.8-5.2-17.5-6.4-6.2-1.4-11.7-2-20.5-1.9-8.3 0-14.4 0.6-20 2-4.4 1.1-12.1 3.9-17 6.3z"/>
</svg>